<svg version="1.1" id="Layer_1" xmlns="http://www.w3.org/2000/svg" xmlns:xlink="http://www.w3.org/1999/xlink" x="0px" y="0px"
	 width="100%" viewBox="0 0 557 562" enable-background="new 0 0 557 562" xml:space="preserve">
<path fill="#4F39F6" opacity="1.000000" stroke="none" 
	d="
M271.000000,563.000000 
	C180.686722,563.000000 90.873436,563.000000 1.030079,563.000000 
	C1.030079,375.728546 1.030079,188.457077 1.030079,1.092803 
	C186.563309,1.092803 372.126678,1.092803 557.845032,1.092803 
	C557.845032,188.333237 557.845032,375.666595 557.845032,563.000000 
	C462.457001,563.000000 366.978485,563.000000 271.000000,563.000000 
M123.511208,421.489197 
	C123.511230,324.328003 123.511917,227.166809 123.506630,130.005615 
	C123.506516,128.007095 123.552010,125.998703 123.381264,124.011673 
	C122.377983,112.335838 114.413536,104.817856 103.547112,105.219620 
	C92.920235,105.612518 85.195580,113.980919 85.190392,125.568520 
	C85.145287,226.396255 85.128258,327.224091 85.217125,428.051758 
	C85.226311,438.470886 87.081650,448.657104 92.568642,457.764740 
	C104.405922,477.413055 121.921860,487.015839 144.825729,487.011780 
	C244.820221,486.994019 344.814728,487.004730 444.809204,486.999329 
	C446.307831,486.999237 447.817810,487.030396 449.303314,486.869659 
	C464.659851,485.207764 472.022919,468.799469 463.001282,456.305756 
	C458.398010,449.930847 451.687653,448.796844 444.401611,448.799774 
	C346.073700,448.839478 247.745773,448.831543 149.417862,448.805176 
	C145.928940,448.804260 142.394318,448.790375 138.960419,448.264191 
	C130.844833,447.020630 124.575127,440.178223 123.828690,431.967041 
	C123.542809,428.822205 123.606651,425.645599 123.511208,421.489197 
M314.105835,159.967331 
	C312.062897,149.345901 303.537415,142.369934 293.791412,143.345108 
	C283.373444,144.387543 276.175842,152.433014 276.116791,163.369598 
	C276.033173,178.861969 276.092987,194.355103 276.093048,209.847916 
	C276.093262,269.986664 276.073761,330.125427 276.112518,390.264191 
	C276.119995,401.858185 284.184967,410.436066 294.994659,410.633453 
	C305.866669,410.832001 314.224640,402.393524 314.229401,390.764404 
	C314.260773,314.133881 314.209930,237.503372 314.105835,159.967331 
M371.671844,261.499756 
	C371.674500,304.655640 371.620758,347.811646 371.717712,390.967316 
	C371.743317,402.342773 379.941895,410.612915 390.667053,410.634125 
	C401.270935,410.655121 409.801849,402.200165 409.822815,391.048492 
	C409.918152,340.394592 409.927948,289.740295 409.816101,239.086472 
	C409.791229,227.822083 401.372284,219.717636 390.505737,219.798157 
	C379.869995,219.876984 371.949097,227.878143 371.711060,239.005707 
	C371.557861,246.167389 371.675568,253.334854 371.671844,261.499756 
M215.267670,402.665039 
	C216.491898,398.431244 218.679123,394.218628 218.772873,389.959930 
	C219.168564,371.984161 218.964905,353.994598 218.931992,336.010162 
	C218.909546,323.748718 210.755127,314.967529 199.604904,315.096283 
	C188.582718,315.223541 180.828217,323.750305 180.800400,335.906342 
	C180.759247,353.890747 180.767654,371.875336 180.798477,389.859802 
	C180.815002,399.504089 184.981873,406.148254 192.822098,409.236755 
	C200.672775,412.329437 208.200500,410.283905 215.267670,402.665039 
z"/>
<path fill="#FDFDFF" opacity="1.000000" stroke="none" 
	d="
M123.511169,421.986328 
	C123.606651,425.645599 123.542809,428.822205 123.828690,431.967041 
	C124.575127,440.178223 130.844833,447.020630 138.960419,448.264191 
	C142.394318,448.790375 145.928940,448.804260 149.417862,448.805176 
	C247.745773,448.831543 346.073700,448.839478 444.401611,448.799774 
	C451.687653,448.796844 458.398010,449.930847 463.001282,456.305756 
	C472.022919,468.799469 464.659851,485.207764 449.303314,486.869659 
	C447.817810,487.030396 446.307831,486.999237 444.809204,486.999329 
	C344.814728,487.004730 244.820221,486.994019 144.825729,487.011780 
	C121.921860,487.015839 104.405922,477.413055 92.568642,457.764740 
	C87.081650,448.657104 85.226311,438.470886 85.217125,428.051758 
	C85.128258,327.224091 85.145287,226.396255 85.190392,125.568520 
	C85.195580,113.980919 92.920235,105.612518 103.547112,105.219620 
	C114.413536,104.817856 122.377983,112.335838 123.381264,124.011673 
	C123.552010,125.998703 123.506516,128.007095 123.506630,130.005615 
	C123.511917,227.166809 123.511230,324.328003 123.511169,421.986328 
z"/>
<path fill="#FEFEFF" opacity="1.000000" stroke="none" 
	d="
M314.145874,160.420090 
	C314.209930,237.503372 314.260773,314.133881 314.229401,390.764404 
	C314.224640,402.393524 305.866669,410.832001 294.994659,410.633453 
	C284.184967,410.436066 276.119995,401.858185 276.112518,390.264191 
	C276.073761,330.125427 276.093262,269.986664 276.093048,209.847916 
	C276.092987,194.355103 276.033173,178.861969 276.116791,163.369598 
	C276.175842,152.433014 283.373444,144.387543 293.791412,143.345108 
	C303.537415,142.369934 312.062897,149.345901 314.145874,160.420090 
z"/>
<path fill="#FEFEFF" opacity="1.000000" stroke="none" 
	d="
M371.671844,260.999756 
	C371.675568,253.334854 371.557861,246.167389 371.711060,239.005707 
	C371.949097,227.878143 379.869995,219.876984 390.505737,219.798157 
	C401.372284,219.717636 409.791229,227.822083 409.816101,239.086472 
	C409.927948,289.740295 409.918152,340.394592 409.822815,391.048492 
	C409.801849,402.200165 401.270935,410.655121 390.667053,410.634125 
	C379.941895,410.612915 371.743317,402.342773 371.717712,390.967316 
	C371.620758,347.811646 371.674500,304.655640 371.671844,260.999756 
z"/>
<path fill="#FEFEFF" opacity="1.000000" stroke="none" 
	d="
M215.050232,402.960388 
	C208.200500,410.283905 200.672775,412.329437 192.822098,409.236755 
	C184.981873,406.148254 180.815002,399.504089 180.798477,389.859802 
	C180.767654,371.875336 180.759247,353.890747 180.800400,335.906342 
	C180.828217,323.750305 188.582718,315.223541 199.604904,315.096283 
	C210.755127,314.967529 218.909546,323.748718 218.931992,336.010162 
	C218.964905,353.994598 219.168564,371.984161 218.772873,389.959930 
	C218.679123,394.218628 216.491898,398.431244 215.050232,402.960388 
z"/>
</svg>